<?xml version="1.0" standalone="no"?><!DOCTYPE svg PUBLIC "-//W3C//DTD SVG 1.1//EN" "http://www.w3.org/Graphics/SVG/1.1/DTD/svg11.dtd"><svg t="1608575768763" class="icon" viewBox="0 0 1024 1024" version="1.1" xmlns="http://www.w3.org/2000/svg" p-id="1961" xmlns:xlink="http://www.w3.org/1999/xlink" width="200" height="200"><defs><style type="text/css"></style></defs><path d="M537.329387 961.750237l-72.14718 0 0-98.867752c-132.536572-11.039427-217.334887-75.169003-254.384711-192.391798l114.900913-26.720571c20.658506 75.178213 67.153446 115.618251 139.483798 121.313973L465.182206 553.986253c-94.417393-21.726837-155.87614-49.249681-184.375218-82.568531-28.508287-33.308617-42.753733-73.123414-42.753733-119.443369 0-120.060423 75.704193-189.359742 227.128951-207.889771L465.182206 67.128887l72.14718 0 0 76.956719c110.800525 14.254655 180.810019 68.941162 210.027457 164.067706l-108.488877 22.980387c-18.527982-54.861492-52.372811-84.439134-101.539604-88.714508L537.328363 428.932096c69.825298 19.956517 116.854405 35.272341 141.087319 45.960775 24.223704 10.688433 46.042639 31.530111 65.467037 62.527079 19.414165 30.995945 29.125341 67.337641 29.125341 109.022019 0 59.146075-20.132526 108.312868-60.390415 147.500379-40.265052 39.196721-98.691743 62.177108-175.289282 68.940139L537.328363 961.750237zM465.182206 242.419192c-30.996968 0.35918-56.916291 8.108678-77.757968 23.24747-20.842701 15.148002-31.264051 37.500079-31.264051 67.069535 0 49.885154 36.340673 79.627549 109.022019 89.24765L465.182206 242.419192zM537.329387 765.083066c33.485649-0.350994 61.542658-10.154267 84.171028-29.393447 22.621207-19.23918 33.935903-44.357254 33.935903-75.353199 0-52.014654-39.371706-85.325317-118.106932-99.937107L537.329387 765.083066z" p-id="1962"></path></svg>